<svg width="50" height="50" viewBox="0 0 50 50" fill="none" xmlns="http://www.w3.org/2000/svg">
<rect width="50" height="50" rx="25" fill="#0F0F0F"/>
<path d="M32.7747 21.6751C31.8282 17.3481 28.1955 15.4 25.0045 15.4C25.0045 15.4 25.0045 15.4 24.9955 15.4C21.8135 15.4 18.1718 17.3387 17.2253 21.6658C16.1707 26.4985 19.0191 30.5914 21.5972 33.167C22.5527 34.1223 23.7786 34.6 25.0045 34.6C26.2304 34.6 27.4564 34.1223 28.4028 33.167C30.9809 30.5914 33.8293 26.5079 32.7747 21.6751ZM25.0045 26.3674C23.4361 26.3674 22.1651 25.0468 22.1651 23.4172C22.1651 21.7875 23.4361 20.4669 25.0045 20.4669C26.573 20.4669 27.844 21.7875 27.844 23.4172C27.844 25.0468 26.573 26.3674 25.0045 26.3674Z" fill="#F2DD4A"/>
</svg>
